<!-- ========================= -->
<!--          SUNSET           -->
<!-- ========================= -->
<svg xmlns="http://www.w3.org/2000/svg" viewBox="0 0 600 600" width="600" height="600" role="img" aria-labelledby="sunsetTitle sunsetDesc">
  <title id="sunsetTitle">Golden Sunset behind Mountain Silhouettes</title>
  <desc id="sunsetDesc">A radiant sunset sky fades from orange to violet with layered mountain silhouettes, stars emerging, and a soft glow.</desc>

  <defs>
    <clipPath id="circleMask">
      <circle cx="300" cy="300" r="300" />
    </clipPath>
    <!-- Sky gradient -->
    <linearGradient id="sunset-sky" x1="0" y1="0" x2="0" y2="1">
      <stop offset="0%" stop-color="#FF914D"/>
      <stop offset="45%" stop-color="#FF5E62"/>
      <stop offset="75%" stop-color="#C850C0"/>
      <stop offset="100%" stop-color="#3A1C71"/>
    </linearGradient>

    <!-- Sun glow -->
    <radialGradient id="sunset-sun" cx="50%" cy="62%" r="38%">
      <stop offset="0%" stop-color="#FFE29A"/>
      <stop offset="40%" stop-color="#FFAF66"/>
      <stop offset="100%" stop-color="#FFAF66" stop-opacity="0"/>
    </radialGradient>

    <!-- Atmospheric haze near horizon -->
    <linearGradient id="sunset-haze" x1="0" y1="0" x2="0" y2="1">
      <stop offset="0%" stop-color="#FFFFFF" stop-opacity="0.3"/>
      <stop offset="100%" stop-color="#FFFFFF" stop-opacity="0"/>
    </linearGradient>

    <!-- Grain texture -->
    <filter id="sunset-grain" x="-20%" y="-20%" width="140%" height="140%">
      <feTurbulence type="fractalNoise" baseFrequency="0.8" numOctaves="2" seed="9"/>
      <feColorMatrix type="saturate" values="0"/>
      <feComponentTransfer>
        <feFuncA type="table" tableValues="0 0.07"/>
      </feComponentTransfer>
    </filter>

    <!-- Mountain blur for depth -->
    <filter id="sunset-far-blur">
      <feGaussianBlur stdDeviation="1.2"/>
    </filter>
  </defs>

  <g clip-path="url(#circleMask)">
    <!-- Sky -->
    <rect width="800" height="600" fill="url(#sunset-sky)"/>

    <!-- Sun glow behind peaks -->
    <circle cx="400" cy="280" r="140" fill="url(#sunset-sun)"/>

    <!-- Haze band -->
    <rect x="0" y="320" width="800" height="80" fill="url(#sunset-haze)"/>

    <!-- Distant mountains (layer 1) -->
    <g filter="url(#sunset-far-blur)" opacity="0.7">
      <path d="M0,390 C90,360 150,370 240,350 C320,335 380,360 440,350 C520,335 600,360 680,340 C740,330 780,335 800,330 L800,600 L0,600 Z" fill="#5E3B8C"/>
    </g>

    <!-- Mid mountains (layer 2) -->
    <path d="M0,430 C100,410 160,430 220,420 C300,405 360,430 420,410 C500,390 580,420 660,400 C720,385 760,395 800,390 L800,600 L0,600 Z" fill="#4B2E73" opacity="0.9"/>

    <!-- Foreground mountains (layer 3) -->
    <path d="M0,470 C80,455 160,480 240,470 C300,462 360,480 420,462 C500,440 600,470 680,450 C740,438 770,445 800,440 L800,600 L0,600 Z" fill="#2C1B3F"/>

    <!-- Emerging stars -->
    <g opacity="0.9">
      <circle cx="120" cy="90" r="1.5" fill="#FFFFFF"/>
      <circle cx="180" cy="140" r="1.1" fill="#FFFFFF"/>
      <circle cx="260" cy="70" r="1.2" fill="#FFFFFF"/>
      <circle cx="360" cy="110" r="1.6" fill="#FFFFFF"/>
      <circle cx="460" cy="80" r="1.2" fill="#FFFFFF"/>
      <circle cx="520" cy="130" r="1.4" fill="#FFFFFF"/>
      <circle cx="640" cy="60" r="1.2" fill="#FFFFFF"/>
      <circle cx="700" cy="120" r="1.0" fill="#FFFFFF"/>
    </g>

    <!-- Grain overlay (subtle) -->
    <rect width="800" height="600" filter="url(#sunset-grain)" opacity="0.14"/>
  </g>
</svg>